<svg xmlns="http://www.w3.org/2000/svg" xmlns:xlink="http://www.w3.org/1999/xlink" width="37" height="37"><g transform="translate(-1385 267)"><use fill="#333" transform="rotate(18.765 1499.349 4119.917)" xlink:href="#path0_fill"/><mask id="a"><use fill="#fff" transform="rotate(18.765 1499.349 4119.917)" xlink:href="#path0_fill"/></mask><g mask="url(#a)"><use fill="#333" transform="rotate(18.765 1499.349 4119.917)" xlink:href="#path1_stroke_2x"/></g></g><use fill="#333" transform="rotate(18.765 -9.338 25.604)" xlink:href="#path2_stroke"/><use fill="#333" transform="rotate(18.765 -77.65 48.176)" xlink:href="#path3_stroke"/><defs><path id="path0_fill" d="M6.925 2.308c0 1.275-1.55 2.308-3.463 2.308C1.55 4.616 0 3.583 0 2.308S1.55 0 3.462 0c1.912 0 3.462 1.033 3.462 2.308z"/><path id="path1_stroke_2x" d="M5.425 2.308c0 .004 0 .032-.04.095-.043.07-.136.175-.307.29-.348.231-.915.423-1.616.423v3c1.211 0 2.375-.324 3.28-.928.895-.596 1.683-1.585 1.683-2.88h-3zm-1.963.808c-.701 0-1.268-.192-1.616-.424a1.049 1.049 0 0 1-.307-.289c-.04-.063-.039-.091-.039-.095h-3c0 1.295.787 2.284 1.682 2.88.905.604 2.07.928 3.28.928v-3zM1.5 2.308c0-.003-.001-.032.039-.095.044-.07.136-.175.307-.289.348-.232.915-.424 1.616-.424v-3c-1.21 0-2.375.325-3.28.928C-.713.024-1.5 1.013-1.5 2.308h3zM3.462 1.5c.701 0 1.268.192 1.616.424.171.114.264.22.308.29.04.062.038.09.038.094h3c0-1.295-.787-2.284-1.682-2.88-.905-.604-2.069-.928-3.28-.928v3z"/><path id="path2_stroke" d="M6.384 14.318l-.426-.617.426.617zm-2.909 7.037l-.113-.742.113.742zm-1.884-2.557l-.618-.424.618.424zm24.447 2.564l-.118.741.117-.74zm-3.463-7.341l.739-.131-.739.13zM14.663.75c1.299 0 2.28.396 3.062 1.063.8.681 1.435 1.682 1.957 2.952 1.054 2.566 1.548 5.96 2.155 9.386l1.477-.261c-.589-3.322-1.111-6.938-2.245-9.695-.572-1.392-1.323-2.631-2.371-3.524C17.633-.237 16.304-.75 14.663-.75v1.5zm8.776 15.328c.67.23 1.304.434 1.954.867.638.425 1.321 1.093 1.99 2.278l1.306-.736c-.772-1.37-1.611-2.222-2.464-2.79-.84-.56-1.664-.82-2.3-1.038l-.486 1.42zm2.716 4.544c-8.536-1.35-14.45-1.283-22.793-.009l.227 1.483c8.2-1.253 13.958-1.318 22.331.007l.235-1.481zm-23.945-1.4c.977-1.425 2.351-2.734 4.6-4.287l-.852-1.234C3.62 15.314 2.09 16.746.973 18.374l1.237.848zm5.759-6.057c.336-1.838.926-5.021 2.039-7.739.556-1.359 1.223-2.55 2.014-3.391.781-.83 1.646-1.285 2.641-1.285v-1.5c-1.518 0-2.754.716-3.733 1.757-.97 1.03-1.72 2.41-2.31 3.851-1.18 2.883-1.794 6.215-2.127 8.038l1.476.27zm-1.16 1.77a2.757 2.757 0 0 0 1.16-1.77l-1.476-.27a1.258 1.258 0 0 1-.535.806l.852 1.234zm-3.447 5.678c-.493.075-.913-.131-1.137-.425-.21-.274-.255-.616-.015-.966l-1.237-.848c-.638.93-.508 1.983.06 2.726.554.723 1.515 1.155 2.556.996l-.227-1.483zm24.02-1.39a.833.833 0 0 1-.086.99c-.24.292-.663.484-1.141.409l-.235 1.481a2.725 2.725 0 0 0 2.533-.935c.583-.707.774-1.727.236-2.681l-1.306.736zm-5.545-5.072c.15.853.716 1.624 1.602 1.927l.485-1.419c-.304-.104-.542-.383-.61-.77l-1.477.262z"/><path id="path3_stroke" d="M-.697.276C.078 2.234 1.827 3.74 3.82 3.99c2.075.26 4.173-.858 5.54-3.661L8.015-.33C6.858 2.04 5.302 2.664 4.008 2.501 2.634 2.33 1.3 1.25.698-.275L-.698.276z"/></defs></svg>