<svg xmlns="http://www.w3.org/2000/svg" xmlns:xlink="http://www.w3.org/1999/xlink" width="25" height="25"><use fill="#333" transform="translate(11.84 3.947)" xlink:href="#path0_fill"/><use fill="#333" transform="rotate(-128.03 8.368 8.433)" xlink:href="#path1_fill"/><g transform="translate(-1080 261)"><mask id="a"><use fill="#fff" transform="translate(1080 -261)" xlink:href="#path2_fill"/></mask><g mask="url(#a)"><use fill="#333" transform="translate(1080 -261)" xlink:href="#path3_stroke_2x"/></g></g><defs><path id="path0_fill" d="M0 1.316a1.316 1.316 0 1 1 2.632 0V9.21A1.316 1.316 0 1 1 0 9.21V1.316z"/><path id="path1_fill" d="M0 1.316a1.316 1.316 0 1 1 2.632 0v7.602a1.316 1.316 0 1 1-2.632 0V1.316z"/><path id="path2_fill" d="M25 12.5C25 19.404 19.404 25 12.5 25S0 19.404 0 12.5 5.596 0 12.5 0 25 5.596 25 12.5z"/><path id="path3_stroke_2x" d="M23 12.5C23 18.299 18.299 23 12.5 23v4C20.508 27 27 20.508 27 12.5h-4zM12.5 23C6.701 23 2 18.299 2 12.5h-4C-2 20.508 4.492 27 12.5 27v-4zM2 12.5C2 6.701 6.701 2 12.5 2v-4C4.492-2-2 4.492-2 12.5h4zM12.5 2C18.299 2 23 6.701 23 12.5h4C27 4.492 20.508-2 12.5-2v4z"/></defs></svg>