<svg xmlns="http://www.w3.org/2000/svg" xmlns:xlink="http://www.w3.org/1999/xlink" width="32" height="29"><use fill="#333" transform="translate(5.091 13.929)" xlink:href="#path0_stroke"/><use fill="#333" transform="matrix(-1 0 0 -1 20 27)" xlink:href="#path1_stroke"/><use fill="#333" transform="translate(1 1)" xlink:href="#path2_stroke"/><defs><path id="path0_stroke" d="M18.96 12.514l.384.923-.385-.923zm.263-.143l-.57-.821.57.821zM-.955-.049c-.093 1.888-.067 4.795.323 7.394.194 1.295.485 2.564.923 3.604.423 1.006 1.065 1.995 2.084 2.427l.78-1.841c-.287-.122-.66-.505-1.021-1.362-.346-.822-.606-1.907-.788-3.125C.982 4.618.954 1.851 1.042.05L-.955-.049zm3.33 13.425c.763.323 1.922.594 3.238.798 1.337.207 2.907.357 4.53.412 3.204.109 6.788-.14 9.201-1.15l-.77-1.845c-1.998.835-5.218 1.103-8.362.996a36.837 36.837 0 0 1-4.293-.39c-1.273-.197-2.234-.438-2.763-.662l-.78 1.841zm17.418-.183c1.347-.934 2.075-2.466 2.486-4.555.41-2.085.54-4.905.54-8.638h-2c0 3.729-.133 6.376-.503 8.252-.368 1.872-.938 2.795-1.663 3.298l1.14 1.643zm-.448.244c.149-.062.3-.141.448-.244l-1.14-1.643a.415.415 0 0 1-.08.041l.771 1.846z"/><path id="path1_stroke" d="M6.876 11.108l-.681-.733.68.733zm.217-.277l.876.482-.876-.482zM-.984-.02c-.033 1.644-.024 4.175.117 6.427.07 1.124.174 2.203.326 3.077.077.436.17.846.285 1.195.106.318.27.713.556 1.004l1.428-1.401c.046.047-.003.017-.086-.234a6.623 6.623 0 0 1-.212-.908c-.135-.768-.233-1.764-.301-2.857C.993 4.103.983 1.63 1.016.02l-2-.04zM.3 11.683c.375.381.904.668 1.439.87.552.21 1.19.358 1.849.418 1.28.116 2.85-.092 3.969-1.131l-1.362-1.465c-.527.49-1.42.695-2.427.604a5.119 5.119 0 0 1-1.322-.296c-.394-.15-.626-.307-.718-.401L.3 11.682zm7.669-.37c.475-.864.709-2.155.845-3.893C8.954 5.64 9 3.225 9 0H7c0 3.223-.046 5.568-.18 7.263-.136 1.736-.356 2.636-.603 3.085l1.752.965zm-.412.527c.16-.15.301-.326.412-.527l-1.752-.965a.11.11 0 0 1-.022.027l1.362 1.465z"/><path id="path2_stroke" d="M15.883.464l-.483.876.483-.876zM.789 13.544C5.236 7.837 9.646 3.975 14.584 1.34l-.942-1.764C8.404 2.37 3.79 6.44-.788 12.314l1.577 1.23zM15.399 1.34c4.995 2.753 9.99 7.755 13.842 12.24l1.518-1.303C26.87 7.752 21.685 2.522 16.366-.412L15.4 1.34zm-.815 0a.854.854 0 0 1 .816 0l.966-1.752a2.854 2.854 0 0 0-2.724-.012l.942 1.764z"/></defs></svg>