<svg width="10" height="15" viewBox="0 0 10 15" version="1.1" xmlns="http://www.w3.org/2000/svg" xmlns:xlink="http://www.w3.org/1999/xlink">
<title>person</title>
<desc>Created using Figma</desc>
<g id="Canvas" transform="translate(-2001 -5)">
<g id="person">
<g id="Ellipse">
<use xlink:href="#path0_fill" transform="translate(2002.67 5)" fill="#FBFBFB"/>
</g>
<g id="Ellipse 2">
<use xlink:href="#path1_fill" transform="translate(2001 12.0833)" fill="#FBFBFB"/>
</g>
</g>
</g>
<defs>
<path id="path0_fill" d="M 6.66667 3.33333C 6.66667 5.17428 5.17428 6.66667 3.33333 6.66667C 1.49238 6.66667 0 5.17428 0 3.33333C 0 1.49238 1.49238 0 3.33333 0C 5.17428 0 6.66667 1.49238 6.66667 3.33333Z"/>
<path id="path1_fill" d="M 10 3.67754C 10 6.01874 7.76142 7.91667 5 7.91667C 2.23858 7.91667 0 6.01874 0 3.67754C 0 1.33633 2.23858 0 5 0C 7.76142 0 10 1.33633 10 3.67754Z"/>
</defs>
</svg>
