<svg xmlns="http://www.w3.org/2000/svg" xmlns:xlink="http://www.w3.org/1999/xlink" width="33" height="32"><use fill="#333" transform="matrix(.95459 .29793 -.29092 .95675 9.744 23.028)" xlink:href="#path0_fill"/><use fill="#333" transform="rotate(1.389 -903.253 511.882) skewX(.036)" xlink:href="#path1_fill"/><use fill="#333" transform="matrix(.94742 -.32 .31258 .9499 14.544 21.079)" xlink:href="#path2_fill"/><use fill="#333" transform="matrix(.8769 -.48066 .47107 .8821 0 20.105)" xlink:href="#path3_fill"/><use fill="#333" transform="rotate(-2.344 47.839 -529.118)" xlink:href="#path4_stroke"/><use fill="#333" transform="translate(11 5.425)" xlink:href="#path5_stroke"/><use fill="#333" transform="translate(4 12.5)" xlink:href="#path6_stroke"/><defs><path id="path0_fill" d="M0 .875a.875.875 0 1 1 1.75 0v7.004a.875.875 0 0 1-1.75 0V.875z"/><path id="path1_fill" d="M0 .874a.874.874 0 1 1 1.747 0v8.102a.874.874 0 1 1-1.747 0V.874z"/><path id="path2_fill" d="M0 .875a.875.875 0 1 1 1.75 0v9.747a.875.875 0 1 1-1.75 0V.875z"/><path id="path3_fill" d="M0 1.585a1.585 1.585 0 0 1 3.17 0v1.467a1.585 1.585 0 0 1-3.17 0V1.585z"/><path id="path4_stroke" d="M.807 1.998l-.52-.854.52.854zm6.048 11.134l-.52-.854.52.854zm-1.403-.385l-.883.47.883-.47zM9.6 10.361l-.883.469.883-.47zM4.59.936l-.882.469.883-.47zm-.882.469l5.009 9.425 1.766-.939L5.473.466l-1.765.939zm5.009 9.425l-2.382 1.448 1.04 1.709 2.38-1.448-1.038-1.71zm-2.382 1.448L1.326 2.853-.44 3.79l5.01 9.425 1.765-.938zM1.326 2.853l2.382-1.448-1.04-1.71-2.38 1.449 1.038 1.709zm0 0L.287 1.143A2 2 0 0 0-.44 3.792l1.766-.938zm5.01 9.425l-1.767.938a2 2 0 0 0 2.805.77l-1.039-1.708zm2.381-1.448l1.039 1.709a2 2 0 0 0 .727-2.648l-1.766.939zM5.474.466a2 2 0 0 0-2.805-.77l1.039 1.709L5.474.466z"/><path id="path5_stroke" d="M.737 7.067L.17 6.244l.567.823zm2.362 6.293l-.881.472.881-.472zm12.557-5.499l.86-.51-.86.51zm-.475 1.433l-.386-.923.386.923zM11.546.92l.86-.51-.86.51zM10.118.607l-.567-.823.567.823zm.567.824l4.11 6.94 1.721-1.02-4.11-6.94-1.72 1.02zm4.11 6.94L3.981 12.888l.77 1.845 10.815-4.517-.77-1.845zM3.981 12.888L1.304 7.891l-1.763.944 2.677 4.997 1.763-.944zM1.304 7.891l9.381-6.46L9.551-.216.17 6.244 1.304 7.89zm0 0L.17 6.244a2 2 0 0 0-.63 2.591l1.764-.944zm2.677 4.997l-1.763.944a2 2 0 0 0 2.534.901l-.771-1.845zm10.814-4.517l.771 1.845a2 2 0 0 0 .95-2.864l-1.72 1.019zM12.406.41a2 2 0 0 0-2.855-.627l1.134 1.647L12.406.41z"/><path id="path6_stroke" d="M1.646 8.88l-.869.496.869-.496zM5.02.98L4.314.271l.707.707zm.707.706l2.788 5.551 1.788-.898L7.515.79l-1.787.897zm2.788 5.551L2.514 8.384l.375 1.964 6.003-1.146-.376-1.965zM2.514 8.384L1.247 6.167l-1.736.992L.777 9.376l1.737-.992zM1.247 6.167l4.481-4.48L4.314.271l-4.481 4.48 1.414 1.415zm0 0L-.167 4.753a2 2 0 0 0-.322 2.406l1.736-.992zm1.267 2.217l-1.737.992a2 2 0 0 0 2.112.972l-.375-1.964zm6.002-1.147l.376 1.965a2 2 0 0 0 1.412-2.863l-1.788.898zm-1-6.449A2 2 0 0 0 4.313.272l1.414 1.414L7.515.788z"/></defs></svg>